<svg width="92" height="21" viewBox="0 0 92 21" fill="none" xmlns="http://www.w3.org/2000/svg">
<path d="M4.56449 9.48481H14.789V13.2555H4.56449V9.48481ZM4.92965 20.6519H0V0.348065H16.0975V4.11878H4.92965V20.6519Z" fill="#158466"/>
<path d="M29.5729 21C27.8891 21 26.3271 20.739 24.8867 20.2169C23.4667 19.6948 22.2292 18.9599 21.1743 18.0124C20.1396 17.0649 19.3282 15.953 18.7399 14.6768C18.1718 13.4006 17.8878 12.0083 17.8878 10.5C17.8878 8.99171 18.1718 7.59945 18.7399 6.3232C19.3282 5.04696 20.1498 3.93508 21.2047 2.98757C22.2596 2.04005 23.4971 1.30525 24.9171 0.783148C26.3372 0.261049 27.879 0 29.5425 0C31.2263 0 32.7681 0.261049 34.1679 0.783148C35.5879 1.30525 36.8153 2.04005 37.8499 2.98757C38.9048 3.93508 39.7264 5.04696 40.3147 6.3232C40.903 7.58011 41.1972 8.97238 41.1972 10.5C41.1972 12.0083 40.903 13.4102 40.3147 14.7058C39.7264 15.982 38.9048 17.0939 37.8499 18.0414C36.8153 18.9696 35.5879 19.6948 34.1679 20.2169C32.7681 20.739 31.2364 21 29.5729 21ZM29.5425 16.9972C30.496 16.9972 31.3683 16.8425 32.1595 16.5331C32.9709 16.2238 33.681 15.779 34.2896 15.1989C34.8982 14.6188 35.3648 13.9323 35.6894 13.1395C36.0342 12.3467 36.2067 11.4669 36.2067 10.5C36.2067 9.53315 36.0342 8.65331 35.6894 7.8605C35.3648 7.06768 34.8982 6.38121 34.2896 5.8011C33.7013 5.22099 33.0014 4.77624 32.1899 4.46685C31.3784 4.15746 30.496 4.00276 29.5425 4.00276C28.589 4.00276 27.7066 4.15746 26.8951 4.46685C26.1039 4.77624 25.404 5.22099 24.7954 5.8011C24.1868 6.38121 23.7101 7.06768 23.3652 7.8605C23.0406 8.65331 22.8783 9.53315 22.8783 10.5C22.8783 11.4475 23.0406 12.3273 23.3652 13.1395C23.7101 13.9323 24.1767 14.6188 24.765 15.1989C25.3736 15.779 26.0836 16.2238 26.8951 16.5331C27.7066 16.8425 28.589 16.9972 29.5425 16.9972Z" fill="#158466"/>
<path d="M55.2482 21C53.5644 21 52.0023 20.739 50.562 20.2169C49.1419 19.6948 47.9044 18.9599 46.8495 18.0124C45.8149 17.0649 45.0035 15.953 44.4151 14.6768C43.8471 13.4006 43.5631 12.0083 43.5631 10.5C43.5631 8.99171 43.8471 7.59945 44.4151 6.3232C45.0035 5.04696 45.8251 3.93508 46.88 2.98757C47.9349 2.04005 49.1724 1.30525 50.5924 0.783148C52.0125 0.261049 53.5543 0 55.2178 0C56.9016 0 58.4434 0.261049 59.8431 0.783148C61.2632 1.30525 62.4905 2.04005 63.5252 2.98757C64.5801 3.93508 65.4017 5.04696 65.99 6.3232C66.5783 7.58011 66.8725 8.97238 66.8725 10.5C66.8725 12.0083 66.5783 13.4102 65.99 14.7058C65.4017 15.982 64.5801 17.0939 63.5252 18.0414C62.4905 18.9696 61.2632 19.6948 59.8431 20.2169C58.4434 20.739 56.9117 21 55.2482 21ZM55.2178 16.9972C56.1712 16.9972 57.0436 16.8425 57.8348 16.5331C58.6462 16.2238 59.3563 15.779 59.9649 15.1989C60.5735 14.6188 61.04 13.9323 61.3646 13.1395C61.7095 12.3467 61.8819 11.4669 61.8819 10.5C61.8819 9.53315 61.7095 8.65331 61.3646 7.8605C61.04 7.06768 60.5735 6.38121 59.9649 5.8011C59.3765 5.22099 58.6767 4.77624 57.8652 4.46685C57.0537 4.15746 56.1712 4.00276 55.2178 4.00276C54.2643 4.00276 53.3818 4.15746 52.5704 4.46685C51.7792 4.77624 51.0793 5.22099 50.4707 5.8011C49.8621 6.38121 49.3854 7.06768 49.0405 7.8605C48.7159 8.65331 48.5536 9.53315 48.5536 10.5C48.5536 11.4475 48.7159 12.3273 49.0405 13.1395C49.3854 13.9323 49.852 14.6188 50.4403 15.1989C51.0489 15.779 51.7589 16.2238 52.5704 16.5331C53.3818 16.8425 54.2643 16.9972 55.2178 16.9972Z" fill="#158466"/>
<path d="M70.5773 20.6519V0.348065H80.254C82.5667 0.348065 84.6055 0.77348 86.3705 1.62431C88.1354 2.4558 89.5149 3.62569 90.5089 5.13398C91.503 6.64226 92 8.43094 92 10.5C92 12.5497 91.503 14.3384 90.5089 15.866C89.5149 17.3743 88.1354 18.5539 86.3705 19.4047C84.6055 20.2362 82.5667 20.6519 80.254 20.6519H70.5773ZM75.507 16.7942H80.0106C81.4307 16.7942 82.658 16.5428 83.6926 16.0401C84.7475 15.518 85.559 14.7831 86.127 13.8356C86.7153 12.8881 87.0095 11.7762 87.0095 10.5C87.0095 9.20442 86.7153 8.09254 86.127 7.16436C85.559 6.21685 84.7475 5.49171 83.6926 4.98895C82.658 4.46685 81.4307 4.2058 80.0106 4.2058H75.507V16.7942Z" fill="#158466"/>
</svg>
