<svg width="84" height="20" viewBox="0 0 84 20" fill="none" xmlns="http://www.w3.org/2000/svg">
<path d="M4.61797 9.08149H13.8422V12.4931H4.61797V9.08149ZM4.9474 19.1851H0.5V0.814916H15.0227V4.22652H4.9474V19.1851Z" fill="white"/>
<path d="M27.1799 19.5C25.6609 19.5 24.2516 19.2638 22.9521 18.7914C21.671 18.3191 20.5546 17.6542 19.6029 16.797C18.6695 15.9397 17.9374 14.9337 17.4066 13.779C16.8942 12.6243 16.6379 11.3646 16.6379 10C16.6379 8.63536 16.8942 7.37569 17.4066 6.22099C17.9374 5.0663 18.6786 4.06031 19.6303 3.20304C20.582 2.34576 21.6985 1.68094 22.9796 1.20856C24.2607 0.736187 25.6517 0.5 27.1525 0.5C28.6715 0.5 30.0625 0.736187 31.3253 1.20856C32.6065 1.68094 33.7138 2.34576 34.6472 3.20304C35.5989 4.06031 36.3401 5.0663 36.8709 6.22099C37.4016 7.3582 37.667 8.61786 37.667 10C37.667 11.3646 37.4016 12.6331 36.8709 13.8052C36.3401 14.9599 35.5989 15.9659 34.6472 16.8232C33.7138 17.663 32.6065 18.3191 31.3253 18.7914C30.0625 19.2638 28.6807 19.5 27.1799 19.5ZM27.1525 15.8785C28.0127 15.8785 28.7997 15.7385 29.5134 15.4586C30.2455 15.1786 30.8861 14.7762 31.4352 14.2514C31.9842 13.7265 32.4052 13.1054 32.698 12.3881C33.0091 11.6708 33.1647 10.8748 33.1647 10C33.1647 9.12523 33.0091 8.32919 32.698 7.61188C32.4052 6.89457 31.9842 6.27348 31.4352 5.74862C30.9044 5.22376 30.273 4.82136 29.5409 4.54144C28.8088 4.26151 28.0127 4.12155 27.1525 4.12155C26.2923 4.12155 25.4961 4.26151 24.7641 4.54144C24.0503 4.82136 23.4188 5.22376 22.8698 5.74862C22.3207 6.27348 21.8906 6.89457 21.5795 7.61188C21.2867 8.32919 21.1402 9.12523 21.1402 10C21.1402 10.8573 21.2867 11.6533 21.5795 12.3881C21.8906 13.1054 22.3116 13.7265 22.8423 14.2514C23.3914 14.7762 24.032 15.1786 24.7641 15.4586C25.4961 15.7385 26.2923 15.8785 27.1525 15.8785Z" fill="white"/>
<path d="M50.3435 19.5C48.8244 19.5 47.4152 19.2638 46.1157 18.7914C44.8346 18.3191 43.7181 17.6542 42.7664 16.797C41.833 15.9397 41.1009 14.9337 40.5702 13.779C40.0577 12.6243 39.8015 11.3646 39.8015 10C39.8015 8.63536 40.0577 7.37569 40.5702 6.22099C41.1009 5.0663 41.8422 4.06031 42.7939 3.20304C43.7456 2.34576 44.862 1.68094 46.1432 1.20856C47.4243 0.736187 48.8153 0.5 50.316 0.5C51.8351 0.5 53.2261 0.736187 54.4889 1.20856C55.7701 1.68094 56.8773 2.34576 57.8107 3.20304C58.7625 4.06031 59.5037 5.0663 60.0344 6.22099C60.5652 7.3582 60.8306 8.61786 60.8306 10C60.8306 11.3646 60.5652 12.6331 60.0344 13.8052C59.5037 14.9599 58.7625 15.9659 57.8107 16.8232C56.8773 17.663 55.7701 18.3191 54.4889 18.7914C53.2261 19.2638 51.8443 19.5 50.3435 19.5ZM50.316 15.8785C51.1762 15.8785 51.9632 15.7385 52.677 15.4586C53.4091 15.1786 54.0497 14.7762 54.5987 14.2514C55.1478 13.7265 55.5687 13.1054 55.8616 12.3881C56.1727 11.6708 56.3283 10.8748 56.3283 10C56.3283 9.12523 56.1727 8.32919 55.8616 7.61188C55.5687 6.89457 55.1478 6.27348 54.5987 5.74862C54.068 5.22376 53.4365 4.82136 52.7045 4.54144C51.9724 4.26151 51.1762 4.12155 50.316 4.12155C49.4558 4.12155 48.6597 4.26151 47.9276 4.54144C47.2138 4.82136 46.5824 5.22376 46.0334 5.74862C45.4843 6.27348 45.0542 6.89457 44.7431 7.61188C44.4502 8.32919 44.3038 9.12523 44.3038 10C44.3038 10.8573 44.4502 11.6533 44.7431 12.3881C45.0542 13.1054 45.4751 13.7265 46.0059 14.2514C46.555 14.7762 47.1955 15.1786 47.9276 15.4586C48.6597 15.7385 49.4558 15.8785 50.316 15.8785Z" fill="white"/>
<path d="M64.173 19.1851V0.814916H72.9031C74.9895 0.814916 76.8289 1.19982 78.4212 1.96961C80.0135 2.72192 81.258 3.78039 82.1548 5.14503C83.0516 6.50967 83.5 8.12799 83.5 10C83.5 11.8545 83.0516 13.4728 82.1548 14.855C81.258 16.2196 80.0135 17.2868 78.4212 18.0566C76.8289 18.8089 74.9895 19.1851 72.9031 19.1851H64.173ZM68.6204 15.6948H72.6835C73.9646 15.6948 75.0719 15.4673 76.0053 15.0124C76.957 14.5401 77.6891 13.8752 78.2015 13.018C78.7323 12.1607 78.9977 11.1547 78.9977 10C78.9977 8.82781 78.7323 7.82182 78.2015 6.98204C77.6891 6.12477 76.957 5.46869 76.0053 5.01381C75.0719 4.54144 73.9646 4.30525 72.6835 4.30525H68.6204V15.6948Z" fill="white"/>
</svg>
