<svg width="27" height="27" viewBox="0 0 27 27" fill="none" xmlns="http://www.w3.org/2000/svg">
<ellipse cx="13.3695" cy="13.4984" rx="12.889" ry="12.9984" fill="#13B086"/>
<rect width="17.1853" height="17.3313" transform="translate(4.77637 4.83275)" fill="#13B086"/>
<g clip-path="url(#clip0_533_12189)">
<path d="M9.63958 8.63908C8.86224 8.63908 8.354 9.14946 8.354 9.82028C8.354 10.4763 8.8471 11.0012 9.60975 11.0012H9.6245C10.417 11.0012 10.9103 10.4763 10.9103 9.82028C10.8955 9.14946 10.417 8.63908 9.63958 8.63908Z" fill="white"/>
<path d="M8.48682 11.9327H10.7593V18.7688H8.48682V11.9327Z" fill="white"/>
<path d="M16.3391 11.7721C15.1131 11.7721 14.2911 12.924 14.2911 12.924V11.9326H12.0186V18.7687H14.291V14.9511C14.291 14.7468 14.3058 14.5427 14.3658 14.3966C14.5301 13.9885 14.904 13.5657 15.5318 13.5657C16.3541 13.5657 16.683 14.1926 16.683 15.1116V18.7687H18.9552V14.849C18.9552 12.7492 17.8341 11.7721 16.3391 11.7721Z" fill="white"/>
</g>
<defs>
<clipPath id="clip0_533_12189">
<rect width="11.3076" height="11.3063" fill="white" transform="translate(8.00488 8.06755)"/>
</clipPath>
</defs>
</svg>
