<svg width="27" height="27" viewBox="0 0 27 27" fill="none" xmlns="http://www.w3.org/2000/svg">
<ellipse cx="13.6307" cy="13.4984" rx="12.889" ry="12.9984" fill="#13B086"/>
<rect width="17.1853" height="17.3313" transform="translate(5.0376 4.83275)" fill="#13B086"/>
<g clip-path="url(#clip0_533_12171)">
<path d="M19.5779 9.77231C19.1374 9.96553 18.668 10.0936 18.1786 10.1558C18.6821 9.85522 19.0663 9.38292 19.247 8.81363C18.7776 9.09346 18.2593 9.29112 17.707 9.40142C17.2613 8.9269 16.6261 8.633 15.9331 8.633C14.5886 8.633 13.5061 9.72419 13.5061 11.0619C13.5061 11.2544 13.5224 11.4395 13.5624 11.6156C11.5434 11.5172 9.75686 10.5496 8.55671 9.0757C8.34719 9.43918 8.22428 9.85522 8.22428 10.3031C8.22428 11.1441 8.6574 11.8896 9.30301 12.3211C8.91283 12.3137 8.53006 12.2005 8.20577 12.0221C8.20577 12.0295 8.20577 12.0391 8.20577 12.0487C8.20577 13.2287 9.04758 14.2089 10.1515 14.4347C9.9538 14.4887 9.73835 14.5146 9.51476 14.5146C9.35928 14.5146 9.20232 14.5057 9.05498 14.4732C9.36964 15.4348 10.2625 16.1418 11.3242 16.1647C10.498 16.811 9.44886 17.2004 8.31313 17.2004C8.11397 17.2004 7.92295 17.1915 7.73193 17.1671C8.8077 17.8608 10.0826 18.2568 11.4575 18.2568C15.9264 18.2568 18.3696 14.5553 18.3696 11.3469C18.3696 11.2396 18.3659 11.1359 18.3608 11.033C18.8427 10.691 19.2477 10.2639 19.5779 9.77231Z" fill="white"/>
</g>
<defs>
<clipPath id="clip0_533_12171">
<rect width="11.846" height="11.8447" fill="white" transform="translate(7.73193 7.52072)"/>
</clipPath>
</defs>
</svg>
