<svg width="26" height="27" viewBox="0 0 26 27" fill="none" xmlns="http://www.w3.org/2000/svg">
<ellipse cx="13.1112" cy="13.4984" rx="12.889" ry="12.9984" fill="#13B086"/>
<rect width="17.1853" height="17.3313" transform="translate(4.51807 4.83275)" fill="#13B086"/>
<g clip-path="url(#clip0_533_12184)">
<path d="M18.9635 10.8132C18.8297 10.3159 18.4375 9.92382 17.9402 9.7899C17.0316 9.54134 13.3974 9.54134 13.3974 9.54134C13.3974 9.54134 9.76322 9.54134 8.85467 9.78048C8.3669 9.91425 7.96517 10.3159 7.83138 10.8132C7.59229 11.7216 7.59229 13.6055 7.59229 13.6055C7.59229 13.6055 7.59229 15.4988 7.83138 16.3977C7.96532 16.895 8.35734 17.287 8.85474 17.4209C9.77279 17.6696 13.3975 17.6696 13.3975 17.6696C13.3975 17.6696 17.0316 17.6696 17.9402 17.4304C18.4376 17.2966 18.8297 16.9045 18.9636 16.4073C19.2027 15.4988 19.2027 13.615 19.2027 13.615C19.2027 13.615 19.2122 11.7216 18.9635 10.8132ZM12.2403 15.3458V11.8651L15.2624 13.6055L12.2403 15.3458Z" fill="white"/>
</g>
<defs>
<clipPath id="clip0_533_12184">
<rect width="12.3845" height="12.3831" fill="white" transform="translate(7.20898 7.52378)"/>
</clipPath>
</defs>
</svg>
